# Blender 4.0.1
# www.blender.org
o Gun
v -0.203812 1.629243 0.580472
v 0.203812 1.629243 0.580472
v -0.203812 1.485126 0.640168
v 0.203812 1.485126 0.640168
v -0.203812 1.425431 0.784285
v 0.203812 1.425431 0.784285
v -0.203812 1.485126 0.928401
v 0.203812 1.485126 0.928401
v -0.203812 1.629243 0.988097
v 0.203812 1.629243 0.988097
v -0.203812 1.773360 0.928402
v 0.203812 1.773360 0.928402
v -0.203812 1.833055 0.784285
v 0.203812 1.833055 0.784285
v -0.203812 1.773360 0.640168
v 0.203812 1.773360 0.640168
v 0.000000 1.700628 1.040781
v 0.000000 1.687084 1.843383
v 0.050477 1.679720 1.040781
v 0.040900 1.670142 1.843383
v 0.071385 1.629243 1.040781
v 0.057841 1.629242 1.843383
v 0.050477 1.578766 1.040781
v 0.040900 1.588342 1.843383
v 0.000000 1.557858 1.040781
v 0.000000 1.571401 1.843383
v -0.050477 1.578766 1.040781
v -0.040900 1.588342 1.843383
v -0.071385 1.629243 1.040781
v -0.057841 1.629242 1.843383
v -0.050477 1.679719 1.040781
v -0.040900 1.670142 1.843383
v -0.145552 1.521212 0.840269
v -0.145552 1.737273 0.840269
v 0.145552 1.521212 0.840269
v 0.145552 1.737273 0.840269
v -0.117731 1.549033 1.056330
v -0.145552 1.521212 1.028509
v -0.117731 1.709452 1.056330
v -0.145552 1.737273 1.028509
v 0.117731 1.549033 1.056330
v 0.145552 1.521212 1.028509
v 0.117731 1.709452 1.056331
v 0.145552 1.737273 1.028509
v 0.026690 1.655933 1.843383
v 0.000000 1.666988 1.843383
v 0.037746 1.629242 1.843383
v 0.026690 1.602552 1.843383
v 0.000000 1.591497 1.843383
v -0.026690 1.602552 1.843383
v -0.037746 1.629242 1.843383
v -0.026690 1.655933 1.843383
v 0.026690 1.655933 1.811915
v 0.000000 1.666988 1.811915
v 0.037746 1.629242 1.811915
v 0.026690 1.602552 1.811915
v 0.000000 1.591497 1.811915
v -0.026690 1.602552 1.811915
v -0.037746 1.629242 1.811915
v -0.026690 1.655933 1.811915
vn -0.0000 -0.3827 -0.9239
vn -0.0000 -0.9239 -0.3827
vn -0.0000 -0.9239 0.3827
vn -0.0000 -0.3827 0.9239
vn -0.0000 0.3827 0.9239
vn -0.0000 0.9239 0.3827
vn 1.0000 -0.0000 -0.0000
vn -0.0000 0.9239 -0.3827
vn -0.0000 0.3827 -0.9239
vn -1.0000 -0.0000 -0.0000
vn 0.3826 0.9238 0.0156
vn 0.9238 0.3826 0.0156
vn 0.9238 -0.3826 0.0156
vn 0.3826 -0.9238 0.0156
vn -0.3826 -0.9238 0.0156
vn -0.9238 -0.3826 0.0156
vn -0.0000 -0.0000 1.0000
vn -0.9238 0.3826 0.0156
vn -0.3826 0.9238 0.0156
vn -0.0000 -0.0000 -1.0000
vn -0.0000 1.0000 -0.0000
vn -0.7071 -0.0000 0.7071
vn 0.7071 -0.0000 0.7071
vn -0.0000 -0.7071 0.7071
vn -0.0000 0.7071 0.7071
vn -0.0000 -1.0000 -0.0000
vn 0.3827 -0.9239 -0.0000
vn -0.3827 0.9239 -0.0000
vn 0.3827 0.9239 -0.0000
vn -0.3827 -0.9239 -0.0000
vn 0.9239 0.3827 -0.0000
vn -0.9239 -0.3827 -0.0000
vn 0.9239 -0.3827 -0.0000
vn -0.9239 0.3827 -0.0000
s 0
f 1//1 2//1 4//1 3//1
f 3//2 4//2 6//2 5//2
f 5//3 6//3 8//3 7//3
f 7//4 8//4 10//4 9//4
f 9//5 10//5 12//5 11//5
f 11//6 12//6 14//6 13//6
f 4//7 2//7 16//7 14//7 12//7 10//7 8//7 6//7
f 13//8 14//8 16//8 15//8
f 15//9 16//9 2//9 1//9
f 1//10 3//10 5//10 7//10 9//10 11//10 13//10 15//10
f 17//11 18//11 20//11 19//11
f 19//12 20//12 22//12 21//12
f 21//13 22//13 24//13 23//13
f 23//14 24//14 26//14 25//14
f 25//15 26//15 28//15 27//15
f 27//16 28//16 30//16 29//16
f 18//17 32//17 52//17 46//17
f 29//18 30//18 32//18 31//18
f 31//19 32//19 18//19 17//19
f 17//20 19//20 21//20 23//20 25//20 27//20 29//20 31//20
f 41//17 43//17 39//17 37//17
f 33//20 34//20 36//20 35//20
f 36//21 34//21 40//21 44//21
f 38//10 40//10 34//10 33//10
f 35//7 36//7 44//7 42//7
f 37//22 39//22 40//22 38//22
f 43//23 41//23 42//23 44//23
f 38//24 42//24 41//24 37//24
f 44//25 40//25 39//25 43//25
f 33//26 35//26 42//26 38//26
f 46//27 52//27 60//27 54//27
f 26//17 24//17 48//17 49//17
f 32//17 30//17 51//17 52//17
f 24//17 22//17 47//17 48//17
f 30//17 28//17 50//17 51//17
f 22//17 20//17 45//17 47//17
f 20//17 18//17 46//17 45//17
f 28//17 26//17 49//17 50//17
f 53//17 54//17 60//17 59//17 58//17 57//17 56//17 55//17
f 49//28 48//28 56//28 57//28
f 50//29 49//29 57//29 58//29
f 45//30 46//30 54//30 53//30
f 51//31 50//31 58//31 59//31
f 47//32 45//32 53//32 55//32
f 52//33 51//33 59//33 60//33
f 48//34 47//34 55//34 56//34
