# Blender 4.0.1
# www.blender.org
o Turret_Base
v -0.225938 1.629243 0.573437
v 0.225938 1.629243 0.573437
v -0.225938 1.469481 0.639612
v 0.225938 1.469481 0.639612
v -0.225938 1.855180 0.799374
v 0.225938 1.855180 0.799374
v -0.225938 1.789005 0.639612
v 0.225938 1.789005 0.639612
v -0.458818 1.446646 0.952235
v -0.398009 1.446646 -0.459542
v 0.458818 1.446646 0.952235
v 0.398009 1.446646 -0.459542
v -0.618120 1.446646 0.520541
v -0.579313 1.446646 0.073827
v 0.579313 1.446646 0.073827
v 0.618120 1.446646 0.520541
v -0.267330 1.892663 -0.361487
v -0.287630 1.528133 -0.443757
v 0.287630 1.528133 -0.443757
v 0.267330 1.892663 -0.361487
v -0.267330 1.892663 -0.605088
v -0.287630 1.528133 -0.605088
v 0.287630 1.528133 -0.605088
v 0.267330 1.892663 -0.605088
v -0.343605 2.034306 0.680574
v -0.404798 1.954000 0.765973
v -0.371561 1.953960 -0.352352
v -0.307254 2.034306 -0.271845
v 0.343605 2.034306 0.680574
v 0.404798 1.954000 0.765973
v 0.307254 2.034306 -0.271845
v 0.371561 1.953960 -0.352352
v -0.355725 2.034306 0.143701
v -0.435831 1.954243 0.139652
v -0.463422 1.954248 0.469213
v -0.382628 2.034306 0.466057
v 0.382628 2.034306 0.466057
v 0.463422 1.954248 0.469213
v 0.435831 1.954243 0.139652
v 0.355725 2.034306 0.143701
v 0.225938 1.853775 0.802768
v 0.225938 1.446646 0.904008
v 0.225938 1.463985 0.945869
v 0.225938 1.848924 0.804549
v -0.225938 1.853775 0.802768
v -0.225938 1.446646 0.904008
v -0.225938 1.463985 0.945869
v -0.225938 1.789005 0.826547
v -0.225938 1.583457 0.902008
v -0.225938 1.446646 0.694741
v 0.225938 1.446646 0.694741
v -0.225938 1.446646 0.858884
v -0.225938 1.629243 0.573437
v -0.463422 1.954248 0.469213
v -0.382628 2.034306 0.466057
v -0.357972 2.074786 0.145135
v -0.159618 2.074786 0.145382
v -0.019535 2.074786 0.285815
v -0.019783 2.074786 0.484169
v -0.160215 1.525718 0.624251
v -0.160215 2.074786 0.624251
v -0.358569 2.074786 0.624004
v -0.498651 2.074786 0.483571
v -0.498404 2.074786 0.285218
v -0.160215 1.751919 0.624251
v -0.225938 1.751721 0.624169
v -0.160215 2.034306 0.624251
v -0.353895 2.034306 0.624009
v -0.109274 1.629243 0.573437
v -0.152262 1.525718 0.616318
v -0.225938 1.525718 0.616318
v -0.225938 1.525718 0.624169
v -0.019783 2.034306 0.484169
v -0.019760 2.034306 0.466057
v -0.358569 2.029708 0.624004
v -0.451186 1.954196 0.531155
v -0.019535 2.034306 0.285815
v -0.159618 2.034306 0.145382
v -0.355845 2.034306 0.145138
v -0.357972 2.032189 0.145135
v -0.443427 1.954244 0.230378
v -0.498648 1.838664 0.480901
v -0.498651 1.837027 0.483571
v -0.498404 1.782588 0.285218
v -0.177052 2.071583 0.180940
v -0.177052 2.110701 0.180940
v -0.056627 2.071583 0.301369
v -0.056627 2.110701 0.301369
v -0.056630 2.071583 0.471679
v -0.056630 2.110701 0.471679
v -0.177059 2.071583 0.592104
v -0.177059 2.110701 0.592104
v -0.347369 2.071583 0.592102
v -0.347369 2.110701 0.592102
v -0.467794 2.071583 0.471672
v -0.467794 2.110701 0.471672
v -0.467791 2.071583 0.301362
v -0.467791 2.110701 0.301362
v -0.347362 2.071583 0.180937
v -0.347362 2.110701 0.180937
v -0.351868 2.103780 0.553454
v -0.351868 2.167984 0.553454
v -0.351607 2.103780 0.489315
v -0.351734 2.167984 0.520589
v -0.173911 2.103780 0.554176
v -0.173911 2.167984 0.554176
v -0.173651 2.103780 0.490037
v -0.173777 2.167984 0.521311
v -0.338408 2.114085 0.553508
v -0.338408 2.157679 0.553508
v -0.187371 2.157679 0.554121
v -0.187371 2.114085 0.554121
v -0.338380 2.114085 0.546707
v -0.338380 2.157679 0.546707
v -0.187343 2.157679 0.547319
v -0.187343 2.114085 0.547319
v 0.574413 1.469198 0.093996
v 0.609772 1.469198 0.501016
v 0.468820 1.931696 0.454249
v 0.443681 1.931691 0.153972
v 0.600269 1.490381 0.102942
v 0.633680 1.490381 0.487537
v 0.500494 1.927397 0.443347
v 0.476739 1.927392 0.159614
v -0.607226 1.476075 0.495061
v -0.572919 1.476075 0.100147
v -0.446075 1.924814 0.158339
v -0.470466 1.924819 0.449686
v -0.630450 1.482925 0.493075
v -0.596142 1.482925 0.098161
v -0.469298 1.931663 0.156353
v -0.493690 1.931668 0.447699
vn -0.0000 0.3827 0.9239
vn -0.0000 0.9239 0.3827
vn -1.0000 -0.0000 -0.0000
vn -0.0000 -0.9239 0.3827
vn -0.0000 -0.3827 0.9239
vn 1.0000 -0.0000 -0.0000
vn 0.9263 0.2554 0.2772
vn -0.0000 1.0000 -0.0000
vn -0.0000 0.1474 -0.9891
vn -0.9559 0.2819 -0.0818
vn 0.0104 0.2118 -0.9773
vn -0.0000 -1.0000 -0.0000
vn -0.0104 0.2118 -0.9773
vn 0.9559 0.2819 -0.0818
vn -0.0000 0.3446 0.9387
vn 0.9985 0.0556 -0.0000
vn 0.9531 0.1985 -0.2283
vn -0.9531 0.1985 -0.2283
vn -0.0000 0.1902 -0.9817
vn -0.0000 -0.0000 -1.0000
vn -0.9985 0.0556 -0.0000
vn -0.0000 0.7078 -0.7064
vn -0.0000 0.7285 0.6850
vn -0.7040 0.7078 -0.0589
vn 0.7040 0.7078 -0.0589
vn -0.7038 0.6975 0.1347
vn -0.7164 0.6920 -0.0892
vn 0.7164 0.6920 -0.0892
vn 0.7038 0.6975 0.1347
vn -0.9263 0.2554 0.2772
vn -0.0000 0.9239 -0.3827
vn -0.0000 -0.9239 -0.3827
vn -0.0000 -0.3827 -0.9239
vn -0.0012 -0.0000 1.0000
vn -0.7080 -0.0000 0.7062
vn 1.0000 -0.0000 0.0012
vn -1.0000 -0.0000 -0.0012
vn 0.7062 -0.0000 0.7080
vn 0.0012 -0.0000 -1.0000
vn 0.9561 -0.2815 0.0809
vn 0.7040 -0.7078 0.0588
vn 0.9347 -0.3036 -0.1849
vn -0.7062 -0.0000 -0.7080
vn 0.7080 -0.0000 -0.7062
vn 0.6984 -0.7038 -0.1300
vn -0.0000 0.3827 -0.9239
vn 0.7071 -0.0000 -0.7071
vn 0.7071 -0.0000 0.7071
vn -0.0000 -0.0000 1.0000
vn -0.7071 -0.0000 0.7071
vn -0.7071 -0.0000 -0.7071
vn -1.0000 -0.0000 -0.0041
vn 0.0036 0.4379 -0.8990
vn 1.0000 -0.0000 0.0041
vn -0.0041 -0.0000 1.0000
vn -0.9559 -0.2819 0.0818
vn 0.3429 0.1974 0.9184
vn 0.1880 0.1784 -0.9658
vn 0.6443 -0.7627 -0.0560
vn 0.1308 0.9914 -0.0110
vn 0.9559 -0.2819 0.0818
vn -0.0507 0.1158 0.9920
vn 0.1130 0.0963 -0.9889
vn -0.2809 -0.9594 -0.0244
vn 0.2810 0.9594 0.0235
s 0
f 1//1 3//1 4//1 2//1
f 3//2 50//2 51//2 4//2
f 4//3 51//3 42//3 43//3 44//3 41//3 6//3 8//3 2//3
f 5//4 7//4 8//4 6//4
f 7//5 1//5 2//5 8//5
f 1//6 7//6 5//6 45//6 48//6 49//6 47//6 46//6 52//6 50//6 3//6
f 16//7 38//7 30//7 11//7
f 31//8 28//8 33//8 40//8
f 37//8 36//8 25//8 29//8
f 27//9 32//9 20//9 17//9
f 34//10 14//10 13//10 35//10
f 10//11 27//11 17//11 18//11
f 13//12 16//12 11//12 42//12 51//12 50//12 52//12 9//12
f 32//13 12//13 19//13 20//13
f 10//12 12//12 15//12 14//12
f 38//14 16//14 15//14 39//14
f 16//12 13//12 14//12 15//12
f 36//8 37//8 40//8 33//8
f 11//15 30//15 44//15 43//15 47//15 49//15 48//15 26//15 9//15
f 20//16 19//16 23//16 24//16
f 12//17 32//17 39//17 15//17
f 14//18 34//18 27//18 10//18
f 12//19 10//19 18//19 19//19
f 22//20 21//20 24//20 23//20
f 18//21 17//21 21//21 22//21
f 19//12 18//12 22//12 23//12
f 17//8 20//8 24//8 21//8
f 28//22 31//22 32//22 27//22
f 29//23 25//23 26//23 30//23
f 34//24 35//24 36//24 33//24
f 38//25 39//25 40//25 37//25
f 25//26 36//26 35//26 26//26
f 33//27 28//27 27//27 34//27
f 39//28 32//28 31//28 40//28
f 30//29 38//29 37//29 29//29
f 9//30 26//30 35//30 13//30
f 9//12 52//12 46//12 42//12 11//12
f 46//31 47//31 43//31 42//31
f 45//32 5//32 6//32 41//32
f 26//15 48//15 45//15 41//15 44//15 30//15
f 53//33 69//33 70//33 71//33
f 53//3 71//3 72//3 66//3
f 55//12 79//12 78//12 77//12 74//12
f 60//34 65//34 66//34 72//34
f 57//8 56//8 64//8 63//8 62//8 61//8 59//8 58//8
f 83//35 76//35 75//35 62//35 63//35
f 73//36 74//36 77//36 58//36 59//36
f 84//37 82//37 83//37 63//37 64//37
f 68//12 55//12 74//12 73//12 67//12
f 70//38 69//38 65//38 60//38
f 67//38 73//38 59//38 61//38
f 78//39 79//39 80//39 56//39 57//39
f 81//40 54//40 82//40 84//40
f 79//41 55//41 54//41 81//41 80//41
f 82//42 54//42 76//42 83//42
f 80//43 81//43 84//43 64//43 56//43
f 72//12 71//12 70//12 60//12
f 77//44 78//44 57//44 58//44
f 76//45 54//45 55//45 68//45 75//45
f 75//34 68//34 67//34 61//34 62//34
f 69//46 53//46 66//46 65//46
f 85//47 86//47 88//47 87//47
f 87//6 88//6 90//6 89//6
f 89//48 90//48 92//48 91//48
f 91//49 92//49 94//49 93//49
f 93//50 94//50 96//50 95//50
f 95//3 96//3 98//3 97//3
f 88//8 86//8 100//8 98//8 96//8 94//8 92//8 90//8
f 97//51 98//51 100//51 99//51
f 99//20 100//20 86//20 85//20
f 85//12 87//12 89//12 91//12 93//12 95//12 97//12 99//12
f 101//52 102//52 104//52 103//52
f 103//53 104//53 108//53 107//53
f 107//54 108//54 106//54 105//54
f 106//55 102//55 110//55 111//55
f 103//12 107//12 105//12 101//12
f 108//8 104//8 102//8 106//8
f 111//12 110//12 114//12 115//12
f 105//55 106//55 111//55 112//55
f 102//55 101//55 109//55 110//55
f 101//55 105//55 112//55 109//55
f 116//55 115//55 114//55 113//55
f 110//54 109//54 113//54 114//54
f 112//52 111//52 115//52 116//52
f 109//8 112//8 116//8 113//8
f 119//56 120//56 117//56 118//56
f 123//14 122//14 121//14 124//14
f 119//57 118//57 122//57 123//57
f 117//58 120//58 124//58 121//58
f 118//59 117//59 121//59 122//59
f 120//60 119//60 123//60 124//60
f 127//61 128//61 125//61 126//61
f 131//10 130//10 129//10 132//10
f 125//62 128//62 132//62 129//62
f 127//63 126//63 130//63 131//63
f 126//64 125//64 129//64 130//64
f 128//65 127//65 131//65 132//65
